<svg width="2131" height="2131" viewBox="0 0 2131 2131" fill="none" xmlns="http://www.w3.org/2000/svg">
<rect width="2131" height="2131" fill="#F3F4F6"/>
<path d="M1505.91 1415.67C1505.91 1418.43 1503.67 1420.67 1500.91 1420.67H630.092C627.33 1420.67 625.092 1418.43 625.092 1415.67V715.333C625.092 712.572 627.33 710.333 630.092 710.333H1500.91C1503.67 710.333 1505.91 712.572 1505.91 715.333V1415.67ZM686.919 767.16C684.158 767.16 681.919 769.399 681.919 772.16V1358.84C681.919 1361.6 684.158 1363.84 686.919 1363.84H1444.08C1446.84 1363.84 1449.08 1361.6 1449.08 1358.84V772.16C1449.08 769.399 1446.84 767.16 1444.08 767.16H686.919Z" fill="#B9BECA"/>
<circle cx="823.986" cy="918.698" r="85.24" fill="#B9BECA"/>
<path d="M964.969 1132.88L1194.6 903.247C1196.54 901.312 1199.67 901.293 1201.63 903.204L1390.74 1087.71C1391.71 1088.65 1392.25 1089.94 1392.25 1091.28V1292.54C1392.25 1295.3 1390.01 1297.54 1387.25 1297.54H743.746C740.985 1297.54 738.746 1295.3 738.746 1292.54V1214.37C738.746 1213.05 739.273 1211.78 740.211 1210.84L886.632 1064.42C888.63 1062.42 891.884 1062.47 893.816 1064.53L957.785 1132.77C959.717 1134.83 962.971 1134.88 964.969 1132.88Z" fill="#B9BECA"/>
</svg>
