<svg width="2131" height="2131" viewBox="0 0 2131 2131" fill="none" xmlns="http://www.w3.org/2000/svg">
<rect width="2131" height="2131" fill="#F3F4F6"/>
<path d="M1505.91 1370.67C1505.91 1398.28 1483.52 1420.67 1455.91 1420.67H675.092C647.478 1420.67 625.092 1398.28 625.092 1370.67V760.333C625.092 732.719 647.478 710.333 675.092 710.333H1455.91C1483.52 710.333 1505.91 732.719 1505.91 760.333V1370.67ZM731.919 767.16C704.305 767.16 681.919 789.546 681.919 817.16V1313.84C681.919 1341.45 704.305 1363.84 731.919 1363.84H1399.08C1426.69 1363.84 1449.08 1341.45 1449.08 1313.84V817.16C1449.08 789.546 1426.69 767.16 1399.08 767.16H731.919Z" fill="#B9BECA"/>
<circle cx="823.986" cy="918.698" r="85.24" fill="#B9BECA"/>
<path d="M997.831 1100.02L1163.17 934.677C1182.53 915.321 1213.85 915.128 1233.44 934.243L1377.17 1074.46C1386.81 1083.87 1392.25 1096.78 1392.25 1110.25V1247.54C1392.25 1275.16 1369.87 1297.54 1342.25 1297.54H788.746C761.132 1297.54 738.746 1275.16 738.746 1247.54V1233.01C738.746 1219.75 744.014 1207.03 753.391 1197.66L853.77 1097.28C873.743 1077.31 906.482 1078.04 925.801 1098.65C945.119 1119.26 977.858 1119.99 997.831 1100.02Z" fill="#B9BECA"/>
</svg>
